<svg width="165" height="82" viewBox="0 0 165 82" fill="none" xmlns="http://www.w3.org/2000/svg">
<path d="M165 0H136.31C136.31 9.71 136.35 19.42 136.29 29.13C128.64 29.33 120.99 29.07 113.34 29.23C113.06 36.89 113.33 44.56 113.24 52.22C103.45 52.26 93.65 52.21 83.85 52.2C83.18 56.78 83.71 61.4 83.58 66.01C83.67 71.34 83.24 76.69 83.94 82H113.08C113.41 73.24 113.14 64.48 113.23 55.72C122.02 55.34 130.84 55.53 139.65 55.63C139.67 46.81 139.5 37.98 139.72 29.16C148.15 29.07 156.57 29.14 165 29.12V0Z" fill="#F39C7D"/>
<path d="M136.31 0H109.92C109.86 8.6 110.04 17.21 109.84 25.81C101.2 25.96 92.55 25.61 83.9 25.97C83.07 34.54 83.73 43.16 83.53 51.75C74.92 52.97 66.17 51.88 57.5 52.36C56.44 62.2 57.22 72.12 56.99 82H83.94C83.24 76.69 83.67 71.34 83.58 66.01C83.71 61.4 83.18 56.78 83.85 52.2C93.65 52.21 103.45 52.26 113.24 52.22C113.33 44.56 113.06 36.89 113.34 29.23C120.99 29.07 128.64 29.33 136.29 29.13C136.35 19.42 136.31 9.71 136.31 0Z" fill="#ED7755"/>
<path d="M109.92 0H83.55C83.51 8.59 83.6 17.17 83.51 25.76C74.87 25.69 66.18 26.25 57.57 25.52C57.86 17.02 57.47 8.5 57.8 0H57.4C57.4 17.41 56.91 34.8 56.98 52.2C48.25 52.3 39.52 52.17 30.79 52.25C30.74 62.16 30.64 72.09 30.88 82H56.99C57.22 72.12 56.44 62.2 57.5 52.36C66.17 51.88 74.92 52.97 83.53 51.75C83.73 43.16 83.07 34.54 83.9 25.97C92.55 25.61 101.2 25.96 109.84 25.81C110.04 17.21 109.86 8.6 109.92 0Z" fill="#E75035"/>
<path d="M83.55 0H57.8C57.47 8.5 57.86 17.02 57.57 25.52C66.18 26.25 74.87 25.69 83.51 25.76C83.6 17.17 83.51 8.59 83.55 0Z" fill="#DA1013"/>
<path d="M57.4 0H2.28882e-05V82H30.88C30.64 72.09 30.74 62.16 30.79 52.25C39.52 52.17 48.25 52.3 56.98 52.2C56.91 34.8 57.4 17.41 57.4 0Z" fill="#DA1013"/>
</svg>
