<svg width="165" height="82" viewBox="0 0 165 82" fill="none" xmlns="http://www.w3.org/2000/svg">
<path d="M165 0H136.31C136.31 9.71 136.37 16.29 136.31 26C128.66 26.2 117.15 25.84 109.5 26C109.22 33.66 109.59 44.54 109.5 52.2C99.71 52.24 93.38 52.21 83.58 52.2C83.58 57 83.71 61.4 83.58 66.01C83.67 71.34 83.85 77.5 83.58 82H109.5C109.83 73.24 109.41 60.96 109.5 52.2C118.29 51.82 127.5 52.12 136.31 52.22C136.33 43.4 136.09 34.82 136.31 26C144.74 25.91 156.57 26.02 165 26V0Z" fill="#F39C7D"/>
<path d="M136.31 0H109.92C109.86 8.6 110.04 17.21 109.84 25.81C101.2 25.96 92.55 25.61 83.9 25.97C83.07 34.54 83.78 43.61 83.58 52.2C73 52.2 67.5 52.2 57.5 52.36C56.5 63.5 57.22 72.12 56.99 82H83.94C83.24 76.69 83.67 71.34 83.58 66.01C83.71 61.4 83.18 56.78 83.85 52.2C93.65 52.21 100.05 52.4 109.84 52.36C109.93 44.7 109.56 33.47 109.84 25.81C117.5 25.97 128.66 26.17 136.31 25.97C136.37 16.26 136.31 9.71 136.31 0Z" fill="#ED7755"/>
<path d="M109.92 0H83.55C83.51 8.59 83.6 17.17 83.51 25.76C74.87 25.69 66.18 26.25 57.57 25.52C57.86 17.02 57.47 8.5 57.8 0H57.4C57.4 17.41 56.91 34.8 56.98 52.2C48.25 52.3 39.52 52.17 30.79 52.25C30.74 62.16 30.64 72.09 30.88 82H56.99C57.22 72.12 56.44 62.2 57.5 52.36C66.17 51.88 74.5 52.5 83.51 52.2C83.71 43.61 83.07 34.54 83.9 25.97C92.55 25.61 101.2 25.96 109.84 25.81C110.04 17.21 109.86 8.6 109.92 0Z" fill="#E75035"/>
<path d="M83.55 0H57.8C57.47 8.5 57.86 17.02 57.57 25.52C66.18 26.25 74.87 25.69 83.51 25.76C83.6 17.17 83.51 8.59 83.55 0Z" fill="#bc0505"/>
<path d="M77.98 0H52.23C51.9 8.5 52.29 17.02 52 25.52C60.61 26.25 69.3 25.69 77.94 25.76C78.03 17.17 77.94 8.59 77.98 0Z" fill="#bc0505"/>
<path d="M57.4 0H2.28882e-05V82H30.88C30.64 72.09 30.74 62.16 30.79 52.25C39.52 52.17 48.25 52.3 56.98 52.2C56.91 34.8 57.4 17.41 57.4 0Z" fill="#bc0505"/>
</svg>
